# xmcd
#
# Track frame offsets:
#	150
#	12757
#	26582
#	41060
#	52535
#	67377
#	80555
#	95015
#	106622
#	120207
#
# Disc length: 1774 seconds
#
# Revision: 0
# Processed by: cddbd v1.4PL0 Copyright (c) Steve Scherf et al.
# Submitted via: EasyCDDAExtractor 4.6.0.1
#
DISCID=7206ec0a
DTITLE=Station Country - Celui qui gagne
DYEAR=1999
DGENRE=Country
TTITLE0=Celui qui gagne
TTITLE1=Lucille
TTITLE2=Ma vie n'a plus d'espoir
TTITLE3=Aiko Aiko
TTITLE4=Ce soir je pleure
TTITLE5=L'amour viens, l'amour va
TTITLE6=Je veux mourrir près de toi
TTITLE7=Jambalaya
TTITLE8=Dans tes bras
TTITLE9=Perce les nuages
EXTD=
EXTT0=
EXTT1=
EXTT2=
EXTT3=
EXTT4=
EXTT5=
EXTT6=
EXTT7=
EXTT8=
EXTT9=
PLAYORDER=
